<?xml version="1.0" encoding="UTF-8"?>
<svg width="12px" height="12px" viewBox="0 0 12 12" version="1.1" xmlns="http://www.w3.org/2000/svg" xmlns:xlink="http://www.w3.org/1999/xlink">
    <!-- Generator: Sketch 59.1 (86144) - https://sketch.com -->
    <title>world</title>
    <desc>Created with Sketch.</desc>
    <g id="Symbols" stroke="none" stroke-width="1" fill="none" fill-rule="evenodd">
        <g id="twitter/tweet" transform="translate(-68.000000, -88.000000)" fill="#657786" fill-rule="nonzero">
            <g id="Tweet">
                <g id="Content" transform="translate(68.000000, 20.000000)">
                    <g id="translate" transform="translate(0.000000, 67.000000)">
                        <g id="world" transform="translate(0.000000, 1.000000)">
                            <path d="M6,0 C2.7,0 0,2.7 0,6 C0,9.3 2.7,12 6,12 C9.3,12 12,9.3 12,6 C12,2.7 9.3,0 6,0 Z M6,10.5 C4.875,10.5 3.9,10.125 3.075,9.45 C3.525,8.85 3.6,8.1 3.15,7.5 C2.775,6.975 2.175,6.45 2.175,6 C2.175,5.4 3.6,5.175 4.05,4.575 C4.575,3.975 4.05,2.85 3.525,2.25 C4.125,1.875 4.8,1.575 5.625,1.5 C5.775,1.875 6.3,2.325 6.525,2.625 C6.9,3.225 6.975,3.6 7.5,3.6 C7.65,3.6 9,3.6 9.75,3.375 C10.2,4.125 10.5,5.025 10.5,6 C10.5,8.475 8.475,10.5 6,10.5 Z" id="Shape"></path>
                            <path d="M7.65,5.025 C6.75,5.025 5.925,5.625 6,6.45 C6.225,8.325 5.625,9 6.45,9.375 C7.425,9.75 9.375,7.95 9.3,6.45 C9.3,5.625 8.625,5.025 7.65,5.025 Z" id="Shape"></path>
                        </g>
                    </g>
                </g>
            </g>
        </g>
    </g>
</svg>